<?xml version="1.0" encoding="UTF-8"?><svg id="b" xmlns="http://www.w3.org/2000/svg" viewBox="0 0 128 128"><path fill="currentColor" d="M94.65,98.15c-8.28,8.54-19.15,13.24-30.62,13.24s-22.32-4.7-30.62-13.24c-8.18-8.43-13-19.78-13.52-31.92l3.11,1.27,10.48,4.26c2.75,13.05,12.3,23.36,24.32,26.06v-53.83h-25.41v-12.74h25.41v-15.73h12.82v15.73h25.59v12.74h-25.59v53.75c5.63-1.35,10.95-4.49,15.1-8.93,4.31-4.59,7.34-10.48,8.72-16.84l10.98-4.46,2.67-1.09c-.57,12.04-5.37,23.31-13.52,31.74h.08ZM64,0C28.65,0,0,28.68,0,64s28.68,64,64,64,64-28.68,64-64S99.35,0,64,0"/></svg>