<?xml version="1.0" ?><svg viewBox="0 0 64 64" xmlns="http://www.w3.org/2000/svg"><title/><g id="Church"><path fill="currentColor" d="M60,55H59V52a1,1,0,0,0-1-1H57V32a1,1,0,0,0-.5-.87L43,23.42V20a.7.7,0,0,0,0-.14,1.43,1.43,0,0,0,0-.22.76.76,0,0,0-.12-.19.47.47,0,0,0-.07-.12L33,8.61V7h1a1,1,0,0,0,0-2H33V4a1,1,0,0,0-2,0V5H30a1,1,0,0,0,0,2h1V8.61L21.26,19.33a.47.47,0,0,0-.07.12.76.76,0,0,0-.12.19,1.43,1.43,0,0,0,0,.22A.7.7,0,0,0,21,20v3.42L7.5,31.13A1,1,0,0,0,7,32V51H6a1,1,0,0,0-1,1v3H4a1,1,0,0,0-1,1v4a1,1,0,0,0,1,1H60a1,1,0,0,0,1-1V56A1,1,0,0,0,60,55ZM55,32.58V51H43V25.72ZM38,51V36.74a6,6,0,0,0-12,0V51H23V21H41V51Zm-2,0H28V36.74a4,4,0,0,1,8,0ZM32,10.49,39.74,19H24.26ZM9,32.58l12-6.86V51H9ZM7,53H57v2H7Zm52,6H5V57H59Z"/><path fill="currentColor" d="M32,23a3,3,0,1,0,3,3A3,3,0,0,0,32,23Zm0,4a1,1,0,1,1,1-1A1,1,0,0,1,32,27Z"/><path fill="currentColor" d="M46,37h6a1,1,0,0,0,1-1V35a4,4,0,0,0-8,0v1A1,1,0,0,0,46,37Zm3-4a2,2,0,0,1,2,2H47A2,2,0,0,1,49,33Z"/><path fill="currentColor" d="M15,31a4,4,0,0,0-4,4v1a1,1,0,0,0,1,1h6a1,1,0,0,0,1-1V35A4,4,0,0,0,15,31Zm-2,4a2,2,0,0,1,4,0Z"/><path fill="currentColor" d="M18,39H12a1,1,0,0,0-1,1v8a1,1,0,0,0,1,1h6a1,1,0,0,0,1-1V40A1,1,0,0,0,18,39Zm-1,8H13V41h4Z"/><path fill="currentColor" d="M46,49h6a1,1,0,0,0,1-1V40a1,1,0,0,0-1-1H46a1,1,0,0,0-1,1v8A1,1,0,0,0,46,49Zm1-8h4v6H47Z"/></g></svg>